<svg width="2547" height="3047" fill="none" xmlns="http://www.w3.org/2000/svg">
  <path d="M1079.36 2044.58h-.12v613.75c0 69.21 9.22 119.48 22.15 158.73 12.93 39.26 29.57 67.49 44.39 92.65 18.72 31.77 33.48 56.83 33.48 92.14 0 13.41-5.22 24.11-14.8 31.46-9.59 7.36-23.56 11.37-41.08 11.37H62.392c-19.163 0-34.221-3.92-44.486-11.22-10.258-7.3-15.74-18-15.74-31.61 0-35.31 14.756-60.37 33.47-92.14 14.818-25.16 31.451-53.39 44.379-92.65 12.927-39.25 22.148-89.52 22.148-158.73V388.511c0-69.201-9.22-119.463-22.148-158.717-12.928-39.253-29.561-67.495-44.378-92.651-18.715-31.775-33.47-56.838-33.47-92.145 0-13.612 5.48-24.312 15.74-31.613C28.17 6.08 43.228 2.17 62.391 2.17H1253.83c207.04 0 393.99 23.261 555.65 69.14 158.98 45.114 295.03 112.511 404.36 200.316 108.52 87.133 191.63 195.08 247.06 320.849 55.55 126.057 83.71 271.027 83.71 430.896 0 159.86-28.16 304.84-83.71 430.9-55.43 125.77-138.54 233.72-247.06 320.85-109.33 87.81-245.38 155.2-404.36 200.32-161.66 45.88-348.61 69.14-555.65 69.14h-174.47ZM62.392 3045.97H1123.38c16.2 0 30.04-3.61 40.04-10.45 11.2-7.66 17.13-19.31 17.13-33.67 0-35.67-14.86-60.9-33.66-92.8h-.01c-14.78-25.1-31.37-53.26-44.26-92.4-12.89-39.14-22.09-89.27-22.09-158.32v-612.46h173.3c207.15 0 394.22-23.28 556.01-69.19 159.13-45.16 295.33-112.63 404.82-200.55 108.67-87.27 191.91-195.38 247.42-321.34 55.62-126.23 83.83-271.39 83.83-431.42 0-160.044-28.21-305.191-83.83-431.418-55.51-125.956-138.75-234.072-247.42-321.335-109.49-87.916-245.69-155.39-404.82-200.552C1648.05 24.153 1460.98.877 1253.83.877H62.392c-19.523 0-34.9 4.012-45.4 11.537C6.486 19.943.875 30.98.875 44.998c0 35.662 14.86 60.893 33.648 92.796l.003.005.001.002c14.783 25.101 31.367 53.261 44.256 92.402 12.89 39.142 22.088 89.271 22.088 158.308V2658.33c0 69.05-9.197 119.18-22.088 158.32-12.89 39.14-29.473 67.3-44.256 92.4h-.001l-.004.01c-18.788 31.9-33.647 57.12-33.647 92.79 0 14.02 5.611 25.05 16.117 32.58 10.5 7.53 25.877 11.54 45.4 11.54Z" fill="#F36F3A" stroke="#F36F3A" stroke-width=".25"/>
  <path d="M1087.72 2019.27h-.12v581.74c0 65.6 8.74 113.24 21 150.45 12.26 37.21 28.03 63.98 42.08 87.82 17.73 30.11 31.72 53.86 31.72 87.31 0 12.7-4.94 22.83-14.02 29.8-9.08 6.96-22.31 10.76-38.91 10.76H123.878c-18.152 0-32.417-3.71-42.14-10.62-9.718-6.92-14.91-17.05-14.91-29.94 0-33.45 13.987-57.2 31.717-87.3l.003-.01c14.044-23.84 29.81-50.61 42.063-87.82 12.253-37.21 20.992-84.85 20.992-150.45V449.694c0-65.593-8.739-113.233-20.992-150.44-12.252-37.205-28.015-63.972-42.056-87.815l-.003-.004c-17.735-30.112-31.724-53.863-31.724-87.316 0-12.889 5.192-23.021 14.91-29.935 9.723-6.919 23.988-10.623 42.14-10.623H1253.11c196.22 0 373.41 22.048 526.64 65.532 150.66 42.755 279.6 106.632 383.23 189.844 102.84 82.584 181.62 184.893 234.14 304.087 52.65 119.469 79.34 256.868 79.34 408.376 0 151.52-26.69 288.93-79.34 408.39-52.52 119.21-131.3 221.52-234.14 304.1-103.63 83.22-232.57 147.09-383.23 189.85-153.22 43.48-330.41 65.53-526.64 65.53h-165.39Zm-963.842 949.17H1129.47c15.36 0 28.49-3.42 37.97-9.9 10.63-7.28 16.25-18.33 16.25-31.95 0-33.81-14.08-57.72-31.9-87.95v-.02c-14.02-23.78-29.74-50.47-41.96-87.57-12.22-37.09-20.94-84.61-20.94-150.04v-580.45h164.22c196.34 0 373.65-22.06 526.99-65.58 150.83-42.8 279.92-106.75 383.69-190.08 103-82.72 181.9-185.19 234.52-304.58 52.71-119.65 79.44-257.23 79.44-408.92 0-151.683-26.73-289.259-79.44-408.898-52.62-119.385-131.52-221.86-234.52-304.568-103.77-83.333-232.86-147.282-383.69-190.085-153.34-43.517-330.65-65.58-526.99-65.58H123.878c-18.513 0-33.096 3.805-43.055 10.942-9.964 7.141-15.287 17.612-15.287 30.908 0 33.804 14.082 57.716 31.886 87.946l.015.026c14.01 23.789 29.727 50.477 41.942 87.573 12.216 37.096 20.932 84.604 20.932 150.03V2601.01c0 65.43-8.716 112.95-20.932 150.04-12.215 37.1-27.932 63.79-41.942 87.57l-.017.03c-17.802 30.23-31.884 54.13-31.884 87.94 0 13.29 5.323 23.77 15.287 30.91 9.959 7.14 24.542 10.94 43.055 10.94Z" fill="#F36F3A" stroke="#F36F3A" stroke-width=".25"/>
  <path d="M1096.09 1993.95h-.12v549.73c0 62 8.26 107.02 19.84 142.18 11.58 35.16 26.49 60.45 39.76 82.98l.01.01c16.75 28.45 29.97 50.88 29.97 82.48 0 11.99-4.67 21.55-13.24 28.12-8.58 6.58-21.07 10.16-36.74 10.16h-950.2c-17.144 0-30.614-3.5-39.795-10.03-9.174-6.52-14.076-16.09-14.076-28.25 0-31.6 13.21-54.04 29.966-82.49l.01-.01c13.266-22.53 28.161-47.82 39.738-82.97 11.58-35.16 19.84-80.18 19.84-142.18V510.881c0-61.984-8.26-107.005-19.84-142.166-11.578-35.154-26.474-60.448-39.741-82.977l-.007-.012-.108.063.108-.063c-16.756-28.449-29.966-50.892-29.966-82.491 0-12.168 4.902-21.732 14.076-28.259 9.181-6.531 22.651-10.028 39.795-10.028h1067.02c185.42 0 352.84 20.832 497.62 61.92 142.36 40.401 264.19 100.752 362.11 179.382 97.17 78.029 171.6 174.701 221.23 287.32 49.75 112.886 74.98 242.71 74.98 385.87 0 143.17-25.23 273-74.98 385.88-49.63 112.63-124.06 209.3-221.23 287.33-97.92 78.63-219.75 138.99-362.11 179.38-144.78 41.09-312.2 61.92-497.62 61.92h-156.3ZM185.37 2890.9h950.2c14.52 0 26.93-3.23 35.89-9.36 10.06-6.87 15.38-17.33 15.38-30.21 0-31.96-13.32-54.56-30.15-83.13l-.01-.01c-13.24-22.48-28.09-47.69-39.64-82.74-11.54-35.05-19.78-79.94-19.78-141.77v-548.44h155.13c185.53 0 353.07-20.84 497.97-61.96 142.53-40.45 264.52-100.88 362.57-179.62 97.34-78.16 171.89-175 221.61-287.81 49.82-113.06 75.08-243.07 75.08-386.41 0-143.335-25.26-273.336-75.08-386.388-49.72-112.819-124.27-209.652-221.61-287.81-98.05-78.737-220.04-139.169-362.57-179.618-144.9-41.121-312.44-61.968-497.97-61.968H185.37c-17.505 0-31.293 3.598-40.709 10.347-9.422 6.754-14.454 16.657-14.454 29.232 0 31.96 13.311 54.567 30.147 83.147v.001c13.237 22.476 28.087 47.691 39.629 82.741 11.542 35.049 19.778 79.938 19.778 141.757V2543.68c0 61.83-8.237 106.72-19.78 141.77-11.541 35.04-26.388 60.25-39.623 82.73l-.009.01c-16.831 28.58-30.142 51.18-30.142 83.14 0 12.57 5.032 22.47 14.454 29.23 9.416 6.75 23.204 10.34 40.709 10.34Z" fill="#F36F3A" stroke="#F36F3A" stroke-width=".25"/>
  <path d="M1104.45 1968.65h-.13v517.72c0 58.38 7.79 100.78 18.69 133.89 10.91 33.12 24.95 56.94 37.45 78.16 15.78 26.78 28.22 47.91 28.22 77.66 0 11.28-4.39 20.27-12.45 26.45-8.07 6.19-19.83 9.56-34.57 9.56H246.853c-16.134 0-28.81-3.29-37.449-9.43-8.634-6.14-13.247-15.14-13.247-26.58 0-29.75 12.439-50.88 28.216-77.66 12.498-21.22 26.529-45.04 37.434-78.16 10.906-33.11 18.683-75.51 18.683-133.89V572.069c0-58.376-7.777-100.775-18.683-133.888-10.904-33.112-24.935-56.935-37.432-78.156l-.002-.003c-15.777-26.786-28.216-47.917-28.216-77.661 0-11.445 4.613-20.442 13.247-26.582 8.639-6.144 21.315-9.435 37.449-9.435H1251.67c174.6 0 332.26 19.616 468.6 58.308 134.06 38.042 248.78 94.877 340.99 168.919 91.5 73.475 161.59 164.501 208.32 270.553 46.84 106.298 70.6 228.552 70.6 363.366 0 134.81-23.76 257.06-70.6 363.36-46.73 106.06-116.82 197.09-208.32 270.56-92.21 74.05-206.93 130.88-340.99 168.93-136.34 38.69-294 58.31-468.6 58.31h-147.22Zm-857.597 844.73h894.807c13.68 0 25.37-3.05 33.82-8.82 9.48-6.49 14.49-16.34 14.49-28.48 0-30.11-12.54-51.39-28.39-78.3l-.01-.01c-12.47-21.17-26.45-44.91-37.33-77.91-10.87-33.01-18.62-75.28-18.62-133.49v-516.43h146.05c174.71 0 332.5-19.64 468.95-58.36 134.22-38.09 249.1-95 341.45-169.16 91.66-73.61 161.88-164.8 208.69-271.05 46.92-106.46 70.71-228.9 70.71-363.88 0-134.989-23.79-257.415-70.71-363.884-46.81-106.243-117.03-197.438-208.69-271.043-92.35-74.153-207.23-131.065-341.45-169.156-136.45-38.72-294.24-58.355-468.95-58.355H246.853c-16.494 0-29.489 3.39-38.364 9.753-8.88 6.366-13.624 15.701-13.624 27.556 0 30.099 12.536 51.386 28.381 78.291l.016.026c12.464 21.165 26.446 44.908 37.314 77.911 10.868 33.003 18.623 75.271 18.623 133.48V2486.37c0 58.21-7.755 100.48-18.623 133.49-10.868 33-24.85 56.74-37.314 77.91l-.017.03c-15.845 26.89-28.38 48.18-28.38 78.28 0 11.85 4.744 21.18 13.624 27.55 8.875 6.36 21.87 9.75 38.364 9.75Z" fill="#F36F3A" stroke="#F36F3A" stroke-width=".25"/>
  <path d="M1112.81 1943.33h-.12v485.71c0 54.77 7.3 94.55 17.53 125.62 10.24 31.07 23.4 53.42 35.13 73.33h.01c14.79 25.12 26.46 44.93 26.46 72.83 0 10.56-4.11 18.99-11.67 24.79-7.56 5.79-18.58 8.95-32.4 8.95H308.341c-15.124 0-27.005-3.08-35.102-8.84-8.091-5.75-12.415-14.18-12.415-24.9 0-27.9 11.668-47.71 26.466-72.83l.008-.02c11.721-19.9 24.881-42.25 35.11-73.31 10.231-31.07 17.528-70.85 17.528-125.62V633.252c0-54.765-7.297-94.543-17.528-125.611-10.229-31.06-23.389-53.408-35.11-73.314l-.008-.013c-14.798-25.124-26.466-44.942-26.466-72.837 0-10.724 4.324-19.153 12.415-24.905 8.097-5.757 19.978-8.841 35.102-8.841h942.609c163.79 0 311.69 18.404 439.58 54.696 125.75 35.688 233.37 89.002 319.86 158.456 85.84 68.921 151.58 154.309 195.42 253.787 43.94 99.715 66.22 214.39 66.22 340.85 0 126.46-22.28 241.15-66.22 340.86-43.84 99.48-109.58 184.87-195.42 253.8-86.49 69.45-194.11 122.77-319.86 158.45-127.89 36.3-275.79 54.7-439.58 54.7h-138.14Zm1.17 1.29h136.97c163.9 0 311.92-18.42 439.93-54.74 125.92-35.74 233.69-89.13 320.32-158.7 85.99-69.05 151.87-154.6 195.79-254.28 44.01-99.88 66.33-214.74 66.33-341.38 0-126.63-22.32-241.487-66.33-341.368-43.92-99.673-109.8-185.222-195.79-254.276-86.63-69.567-194.4-122.957-320.32-158.69-128.01-36.329-276.03-54.746-439.93-54.746H308.341c-15.484 0-27.684 3.184-36.017 9.159-8.338 5.98-12.792 14.747-12.792 25.878 0 28.259 11.769 48.236 26.645 73.49l.002.003c11.691 19.851 24.806 42.122 34.999 73.078 10.193 30.956 17.467 70.603 17.467 125.204V2429.04c0 54.6-7.275 94.25-17.469 125.21-10.193 30.95-23.306 53.22-34.996 73.07l-.005.01-.013.02c-14.867 25.24-26.63 45.21-26.63 73.47 0 11.13 4.454 19.89 12.792 25.87 8.333 5.98 20.533 9.16 36.017 9.16h839.409c12.84 0 23.82-2.86 31.75-8.28 8.91-6.09 13.62-15.35 13.62-26.75 0-28.25-11.77-48.22-26.64-73.46l-.01-.03h-.01c-11.69-19.86-24.81-42.12-35.01-73.08-10.19-30.96-17.47-70.61-17.47-125.21v-484.42Z" fill="#F36F3A" stroke="#F36F3A" stroke-width=".25"/>
  <path d="M1121.18 1918.02h-.13v453.7c0 51.16 6.82 88.32 16.38 117.34 9.56 29.02 21.86 49.9 32.82 68.49 13.82 23.47 24.72 41.96 24.72 68.01 0 9.86-3.84 17.72-10.89 23.12-7.06 5.4-17.34 8.35-30.24 8.35H369.827c-14.112 0-25.199-2.87-32.754-8.24-7.549-5.37-11.583-13.23-11.583-23.23 0-26.05 10.893-44.54 24.712-68.01 10.952-18.59 23.248-39.47 32.804-68.49 9.556-29.02 16.371-66.18 16.371-117.34V694.44c0-51.157-6.815-88.316-16.371-117.337-9.556-29.021-21.852-49.901-32.804-68.498-13.819-23.461-24.712-41.962-24.712-68.007 0-10.003 4.034-17.864 11.583-23.229 7.555-5.369 18.642-8.246 32.754-8.246h880.403c152.98 0 291.11 17.186 410.56 51.087 117.45 33.329 217.96 83.119 298.74 147.986 80.16 64.371 141.57 144.117 182.51 237.028 41.03 93.127 61.85 200.226 61.85 318.336 0 118.11-20.82 225.22-61.85 318.35-40.94 92.91-102.35 172.66-182.51 237.03-80.78 64.87-181.29 114.66-298.74 147.99-119.45 33.9-257.58 51.09-410.56 51.09h-129.05Zm-751.353 740.3h784.013c12 0 22.27-2.67 29.68-7.74 8.34-5.7 12.74-14.35 12.74-25.02 0-26.4-11-45.06-24.89-68.65l-.01-.01c-10.92-18.54-23.17-39.34-32.7-68.25-9.52-28.91-16.32-65.93-16.32-116.93v-452.41h127.89c153.1 0 291.34-17.21 410.91-51.14 117.62-33.37 218.28-83.24 299.2-148.22 80.32-64.51 141.86-144.42 182.88-237.52 41.11-93.3 61.96-200.58 61.96-318.87 0-118.28-20.85-225.56-61.96-318.858-41.02-93.102-102.56-173.014-182.88-237.514-80.92-64.974-181.58-114.848-299.2-148.223-119.57-33.933-257.81-51.134-410.91-51.134H369.827c-14.472 0-25.878 2.977-33.668 8.565-7.796 5.592-11.961 13.791-11.961 24.202 0 26.402 10.992 45.066 24.883 68.654l.005.009c10.921 18.542 23.169 39.339 32.688 68.249 9.52 28.909 16.312 65.935 16.312 116.93v1677.28c0 51-6.792 88.02-16.312 116.93-9.519 28.91-21.767 49.71-32.688 68.25l-.005.01c-13.891 23.59-24.883 42.25-24.883 68.65 0 10.41 4.165 18.61 11.961 24.2 7.79 5.59 19.196 8.56 33.668 8.56Z" fill="#F36F3A" stroke="#F36F3A" stroke-width=".25"/>
  <path d="M1129.54 1892.7h-.12v421.7c0 47.55 6.33 82.09 15.22 109.06 8.88 26.98 20.32 46.38 30.5 63.67 12.85 21.8 22.97 38.98 22.97 63.17 0 9.15-3.57 16.44-10.11 21.46-6.55 5.01-16.09 7.75-28.06 7.75H431.316c-13.105 0-23.398-2.67-30.411-7.65-7.007-4.98-10.752-12.27-10.752-21.56 0-24.18 10.116-41.36 22.946-63.15l.012-.02.004-.01c10.178-17.28 21.607-36.69 30.489-63.66 8.884-26.97 15.22-61.51 15.22-109.06V755.628c0-47.551-6.336-82.089-15.22-109.063-8.882-26.968-20.308-46.372-30.486-63.655l-.007-.013-.005-.007c-12.833-21.796-22.953-38.983-22.953-63.167 0-9.282 3.745-16.577 10.752-21.555 7.013-4.983 17.306-7.653 30.411-7.653h818.204c142.16 0 270.53 15.97 381.53 47.474 109.15 30.976 202.55 77.244 277.62 137.524 74.49 59.816 131.55 133.925 169.59 220.261 38.14 86.54 57.48 186.076 57.48 295.826 0 109.76-19.34 209.3-57.48 295.84-38.04 86.34-95.1 160.45-169.59 220.27-75.07 60.27-168.47 106.55-277.62 137.52-111 31.5-239.37 47.47-381.53 47.47h-119.98Zm-698.224 688.1h728.624c11.16 0 20.71-2.49 27.6-7.21 7.76-5.3 11.86-13.36 11.86-23.29 0-24.54-10.22-41.89-23.13-63.81l-.02-.02c-10.15-17.23-21.53-36.55-30.38-63.42-8.85-26.86-15.16-61.27-15.16-108.65V1894h118.81c142.28 0 270.76-15.99 381.88-47.53 109.31-31.02 202.87-77.37 278.07-137.76 74.66-59.95 131.85-134.22 169.97-220.75 38.22-86.71 57.59-186.42 57.59-296.36 0-109.93-19.37-209.638-57.59-296.348-38.12-86.527-95.31-160.797-169.97-220.747-75.2-60.391-168.76-106.74-278.07-137.76-111.12-31.533-239.6-47.522-381.88-47.522H431.316c-13.465 0-24.077 2.771-31.325 7.972-7.255 5.206-11.13 12.838-11.13 22.528 0 24.54 10.218 41.89 23.127 63.811l.011.019.002.004c10.145 17.228 21.526 36.553 30.372 63.416 8.846 26.864 15.159 61.27 15.159 108.655V2314.4c0 47.38-6.313 81.79-15.159 108.65-8.846 26.87-20.227 46.19-30.372 63.42h-.002l-.011.02c-12.909 21.92-23.127 39.27-23.127 63.81 0 9.69 3.875 17.33 11.13 22.53 7.248 5.2 17.86 7.97 31.325 7.97Z" fill="#F36F3A" stroke="#F36F3A" stroke-width=".25"/>
  <path d="M1137.9 1867.4h-.12v389.67c0 43.95 5.85 75.87 14.07 100.79 8.21 24.93 18.78 42.87 28.19 58.84 11.86 20.13 21.21 36.01 21.21 58.34 0 8.44-3.29 15.17-9.33 19.79-6.04 4.62-14.84 7.15-25.89 7.15H492.802c-12.094 0-21.592-2.46-28.063-7.06-6.465-4.59-9.92-11.32-9.92-19.88 0-22.33 9.344-38.2 21.198-58.33l.006-.01.006-.01c9.405-15.97 19.965-33.9 28.174-58.83 8.21-24.92 14.066-56.84 14.066-100.79V816.815c0-43.941-5.856-75.858-14.066-100.787-8.207-24.922-18.766-42.854-28.169-58.822l-.007-.013c-11.861-20.141-21.208-36.017-21.208-58.353 0-8.559 3.455-15.285 9.92-19.876 6.471-4.594 15.969-7.057 28.063-7.057h755.988c131.36 0 249.96 14.757 352.52 43.862 100.85 28.617 187.14 71.368 256.49 127.06 68.83 55.263 121.54 123.73 156.69 203.495 35.24 79.956 53.1 171.916 53.1 273.316 0 101.42-17.86 193.37-53.1 273.33-35.15 79.77-87.86 148.24-156.69 203.5-69.35 55.69-155.64 98.44-256.49 127.06-102.56 29.11-221.16 43.87-352.52 43.87H1137.9ZM474.911 657.849l.108-.063-.108.063c9.375 15.917 19.89 33.77 28.062 58.588 8.173 24.817 14.004 56.602 14.004 100.378V2257.07c0 43.78-5.832 75.57-14.005 100.38-8.17 24.81-18.68 42.66-28.05 58.58l-.011.01-.007.02c-11.932 20.25-21.377 36.29-21.377 58.98 0 8.97 3.586 16.04 10.298 20.85 6.706 4.82 16.523 7.38 28.977 7.38h673.228c10.32 0 19.15-2.29 25.53-6.66 7.18-4.91 10.98-12.38 10.98-21.57 0-22.69-9.45-38.72-21.38-58.98l-.01-.02h-.01c-9.37-15.92-19.89-33.77-28.06-58.59-8.18-24.81-14.01-56.6-14.01-100.38v-388.38h109.72c131.47 0 250.2-14.78 352.87-43.92 101.01-28.66 187.46-71.49 256.95-127.29 68.99-55.4 121.83-124.03 157.07-203.99 35.3-80.13 53.2-172.26 53.2-273.85 0-101.58-17.9-193.71-53.2-273.838-35.24-79.956-88.08-148.584-157.07-203.98-69.49-55.808-155.94-98.632-256.95-127.294-102.67-29.141-221.4-43.913-352.87-43.913H492.802c-12.454 0-22.271 2.563-28.977 7.377-6.712 4.817-10.298 11.881-10.298 20.848 0 22.69 9.439 38.722 21.367 58.98l.017.029Z" fill="#F36F3A" stroke="#F36F3A" stroke-width=".25"/>
  <path d="M1146.27 1842.08h-.13v357.67c0 40.34 5.38 69.63 12.92 92.52 7.54 22.88 17.23 39.34 25.87 54 10.89 18.47 19.46 33.03 19.46 53.52 0 7.72-3.01 13.88-8.54 18.12-5.53 4.23-13.6 6.54-23.73 6.54H554.29c-11.085 0-19.789-2.25-25.717-6.46-5.923-4.21-9.087-10.36-9.087-18.2 0-20.49 8.572-35.05 19.454-53.52 8.633-14.66 18.328-31.12 25.863-54 7.535-22.89 12.908-52.18 12.908-92.52V878.003c0-40.335-5.373-69.632-12.908-92.513-7.535-22.88-17.228-39.342-25.862-54.002l-.001-.003-.108.063.108-.063c-10.882-18.474-19.454-33.038-19.454-53.52 0-7.841 3.164-14 9.087-18.203 5.928-4.208 14.632-6.464 25.717-6.464h693.79c120.54 0 229.38 13.541 323.49 40.254 92.54 26.259 171.73 65.485 235.37 116.59 63.15 50.712 111.53 113.538 143.79 186.736 32.33 73.372 48.72 157.752 48.72 250.812 0 93.05-16.39 177.44-48.72 250.81-32.26 73.19-80.64 136.02-143.79 186.73-63.64 51.11-142.83 90.34-235.37 116.6-94.11 26.71-202.95 40.25-323.49 40.25h-101.81Zm-591.98 583.67h617.83c9.48 0 17.6-2.12 23.47-6.13 6.6-4.52 10.1-11.38 10.1-19.83 0-20.85-8.68-35.57-19.65-54.18-8.6-14.6-18.25-30.98-25.75-53.75-7.5-22.78-12.86-51.94-12.86-92.11v-356.38h100.65c120.65 0 229.61-13.56 323.85-40.3 92.7-26.3 172.04-65.61 235.82-116.83 63.32-50.84 111.82-113.83 144.16-187.22 32.4-73.54 48.83-158.1 48.83-251.33 0-93.24-16.43-177.79-48.83-251.333-32.34-73.386-80.84-136.377-144.16-187.219-63.78-51.216-143.12-90.527-235.82-116.831-94.24-26.741-203.2-40.3-323.85-40.3H554.29c-11.446 0-20.468 2.356-26.632 6.784-6.169 4.431-9.464 10.928-9.464 19.174 0 20.843 8.673 35.57 19.63 54.175v.001c8.602 14.606 18.249 30.987 25.747 53.758 7.498 22.771 12.848 51.936 12.848 92.104V2199.75c0 40.17-5.35 69.34-12.848 92.11-7.498 22.77-17.145 39.15-25.747 53.75l-.007.01c-10.953 18.6-19.623 33.32-19.623 54.17 0 8.24 3.295 14.74 9.464 19.17 6.164 4.43 15.186 6.79 26.632 6.79Z" fill="#F36F3A" stroke="#F36F3A" stroke-width=".25"/>
  <path d="M1154.63 1816.77h-.12v325.65c0 36.73 4.89 63.41 11.76 84.24 6.86 20.84 15.69 35.83 23.55 49.18 9.91 16.81 17.72 30.06 17.72 48.69 0 7.01-2.74 12.61-7.76 16.45-5.03 3.84-12.36 5.94-21.56 5.94H615.778c-10.075 0-17.984-2.04-23.37-5.87-5.38-3.81-8.255-9.4-8.255-16.52 0-18.63 7.797-31.88 17.699-48.69l.003-.01c7.86-13.34 16.687-28.33 23.547-49.17 6.862-20.83 11.755-47.51 11.755-84.24V939.19c0-36.726-4.893-63.402-11.755-84.237-6.859-20.83-15.685-35.818-23.545-49.164l-.005-.008c-9.902-16.816-17.699-30.067-17.699-48.699 0-7.116 2.875-12.706 8.255-16.522 5.386-3.82 13.295-5.87 23.37-5.87h631.582c109.73 0 208.8 12.328 294.48 36.637 84.23 23.905 156.31 59.614 214.24 106.131 57.48 46.159 101.52 103.347 130.87 169.972 29.43 66.78 44.35 143.59 44.35 228.29 0 84.71-14.92 161.52-44.35 228.31-29.35 66.62-73.39 123.81-130.87 169.97-57.93 46.51-130.01 82.22-214.24 106.12-85.68 24.32-184.75 36.65-294.48 36.65h-92.73ZM600.741 806.433l.108-.064-.108.064c7.829 13.293 16.608 28.203 23.432 48.928 6.823 20.725 11.693 47.27 11.693 83.829v1203.23c0 36.57-4.871 63.11-11.695 83.84-6.822 20.72-15.599 35.62-23.424 48.91l-.006.01c-9.981 16.94-17.88 30.36-17.88 49.35 0 7.52 3.006 13.45 8.634 17.5 5.622 4.04 13.85 6.19 24.283 6.19h562.442c11.26 0 18.91-3.05 23.75-7.55 4.85-4.49 6.86-10.42 6.86-16.14 0-18.98-7.9-32.39-17.87-49.32l-.02-.03c-7.83-13.29-16.62-28.2-23.44-48.92-6.83-20.73-11.7-47.27-11.7-83.84v-324.36h91.56c109.84 0 209.04-12.35 294.83-36.69 84.39-23.95 156.63-59.74 214.7-106.36 57.65-46.29 101.8-103.65 131.25-170.46 29.5-66.96 44.46-143.94 44.46-228.83 0-84.87-14.96-161.86-44.46-228.81-29.45-66.822-73.6-124.167-131.25-170.459-58.07-46.629-130.31-82.415-214.7-106.364-85.79-24.346-184.99-36.689-294.83-36.689H615.778c-10.433 0-18.661 2.15-24.283 6.189-5.628 4.043-8.634 9.971-8.634 17.495 0 18.989 7.896 32.397 17.867 49.329l.013.022Z" fill="#F36F3A" stroke="#F36F3A" stroke-width=".25"/>
  <path d="M1162.99 1791.45h-.12v293.65c0 33.12 4.41 57.18 10.6 75.96 6.19 18.79 14.15 32.31 21.24 44.34h.01c8.92 15.16 15.95 27.1 15.95 43.87 0 6.31-2.46 11.33-6.97 14.78-4.52 3.46-11.12 5.35-19.39 5.35H677.265c-9.065 0-16.179-1.85-21.025-5.28-4.839-3.43-7.425-8.45-7.425-14.85 0-16.77 7.027-28.71 15.949-43.87 7.088-12.03 15.049-25.55 21.235-44.34 6.187-18.78 10.599-42.84 10.599-75.96V1000.38c0-33.118-4.412-57.173-10.599-75.962-6.185-18.785-14.144-32.302-21.23-44.338l-.005-.007-.107.063.107-.063c-8.922-15.15-15.949-27.088-15.949-43.866 0-6.397 2.586-11.421 7.426-14.85 4.845-3.433 11.959-5.275 21.024-5.275h569.375c98.92 0 188.23 11.111 265.46 33.028 75.93 21.547 140.9 53.736 193.12 95.665 51.81 41.605 91.5 93.155 117.96 153.205 26.53 60.2 39.98 129.43 39.98 205.79 0 76.35-13.45 145.59-39.98 205.79-26.46 60.05-66.15 111.6-117.96 153.2-52.22 41.93-117.19 74.12-193.12 95.67-77.23 21.91-166.54 33.02-265.46 33.02h-83.65Zm-485.725 479.24h507.045c10.17 0 17.09-2.76 21.46-6.82 4.38-4.06 6.2-9.42 6.2-14.6 0-17.13-7.13-29.23-16.13-44.51l-.01-.01c-7.06-11.98-14.97-25.42-21.13-44.09-6.15-18.68-10.54-42.61-10.54-75.56v-292.35h82.48c99.03 0 188.46-11.13 265.81-33.08 76.09-21.6 141.22-53.86 193.57-95.9 51.98-41.74 91.8-93.45 118.34-153.69 26.6-60.37 40.09-129.78 40.09-206.31s-13.49-145.94-40.09-206.31c-26.54-60.25-66.36-111.955-118.34-153.692-52.35-42.042-117.48-74.307-193.57-95.902-77.35-21.95-166.78-33.076-265.81-33.076H677.265c-9.425 0-16.858 1.942-21.939 5.595-5.086 3.656-7.803 9.017-7.803 15.822 0 17.138 7.127 29.24 16.125 44.52l.001.002c7.056 11.98 14.969 25.417 21.119 44.096 6.15 18.678 10.539 42.602 10.539 75.555V2085.1c0 32.95-4.389 56.88-10.539 75.56-6.15 18.68-14.063 32.11-21.119 44.09h-.001c-8.998 15.28-16.125 27.39-16.125 44.52 0 6.81 2.717 12.17 7.803 15.82 5.081 3.66 12.514 5.6 21.939 5.6Z" fill="#F36F3A" stroke="#F36F3A" stroke-width=".25"/>
  <path d="M1171.36 1766.14h-.13v261.64c0 29.51 3.94 50.94 9.45 67.69 5.52 16.74 12.61 28.78 18.93 39.51 7.95 13.49 14.21 24.11 14.21 39.04 0 5.59-2.19 10.05-6.2 13.11-4.01 3.06-9.86 4.74-17.22 4.74H738.753c-8.057 0-14.377-1.63-18.679-4.68-4.296-3.04-6.592-7.5-6.592-13.17 0-14.93 6.252-25.55 14.195-39.04l.008-.01c6.313-10.73 13.403-22.77 18.914-39.5 5.514-16.75 9.446-38.18 9.446-67.69v-966.21c0-29.51-3.932-50.95-9.446-67.692-5.511-16.736-12.601-28.779-18.914-39.501l-.008-.013-.097.058.097-.058c-7.943-13.486-14.195-24.108-14.195-39.036 0-5.674 2.296-10.13 6.592-13.172 4.302-3.046 10.622-4.682 18.679-4.682h507.167c88.11 0 167.65 9.894 236.44 29.416 67.63 19.188 125.49 47.856 171.99 85.2 46.15 37.05 81.49 82.96 105.06 136.44 23.62 53.61 35.6 115.27 35.6 183.28 0 68-11.98 129.66-35.6 183.28-23.57 53.48-58.91 99.38-105.06 136.43-46.5 37.35-104.36 66.01-171.99 85.2-68.79 19.52-148.33 29.42-236.44 29.42h-74.56Zm-432.607 427.02H1190.4c9.09 0 15.27-2.46 19.17-6.09 3.91-3.64 5.54-8.43 5.54-13.05 0-15.29-6.36-26.07-14.38-39.69v-.01c-6.29-10.66-13.34-22.63-18.82-39.26s-9.39-37.93-9.39-67.28v-260.35h73.4c88.22 0 167.89-9.91 236.79-29.46 67.79-19.24 125.81-47.98 172.45-85.44 46.31-37.18 81.78-83.25 105.43-136.92 23.7-53.79 35.71-115.63 35.71-183.8 0-68.18-12.01-130.02-35.71-183.8-23.65-53.68-59.12-99.74-105.43-136.93-46.64-37.454-104.66-66.194-172.45-85.431-68.9-19.554-148.57-29.467-236.79-29.467H738.753c-8.415 0-15.053 1.736-19.592 5.001-4.544 3.269-6.971 8.063-6.971 14.145 0 15.289 6.353 26.075 14.376 39.692l.008.014c6.279 10.667 13.32 22.629 18.794 39.254 5.476 16.632 9.385 37.932 9.385 67.282v966.21c0 29.35-3.909 50.65-9.385 67.28-5.475 16.63-12.518 28.59-18.798 39.26h-.004c-8.023 13.62-14.376 24.41-14.376 39.7 0 6.08 2.427 10.87 6.971 14.14 4.539 3.27 11.177 5 19.592 5Z" fill="#F36F3A" stroke="#F36F3A" stroke-width=".25"/>
  <path d="M1179.72 1740.83h-.12v229.63c0 25.9 3.45 44.71 8.29 59.41 4.84 14.69 11.07 25.26 16.61 34.67l.01.01c6.97 11.83 12.45 21.14 12.45 34.21 0 3.62-.98 6.4-2.51 8.53-1.54 2.13-3.64 3.63-5.9 4.68-4.52 2.09-9.65 2.38-12.05 2.38H800.241c-7.046 0-12.572-1.43-16.334-4.09-3.755-2.66-5.762-6.55-5.762-11.5 0-13.07 5.481-22.38 12.445-34.21l.004-.01c5.541-9.41 11.765-19.98 16.603-34.67 4.839-14.7 8.29-33.51 8.29-59.41v-847.71c0-25.9-3.451-44.71-8.29-59.41-4.838-14.69-11.062-25.26-16.603-34.67l-.004-.01-.107.06.107-.06c-6.964-11.83-12.445-21.14-12.445-34.212 0-4.953 2.007-8.841 5.762-11.495 3.762-2.659 9.288-4.088 16.334-4.088h444.969c77.28 0 147.07 8.682 207.41 25.805 59.32 16.83 110.08 41.98 150.87 74.73 40.47 32.5 71.47 72.77 92.15 119.68 20.72 47.03 31.23 101.12 31.23 160.77 0 59.65-10.51 113.74-31.23 160.77-20.68 46.91-51.68 87.17-92.15 119.67-40.79 32.76-91.55 57.9-150.87 74.74-60.34 17.12-130.13 25.8-207.41 25.8h-65.49Zm-379.479 374.81H1196.5c7.99 0 13.43-2.17 16.88-5.38 3.44-3.2 4.87-7.42 4.87-11.5 0-13.43-5.57-22.89-12.61-34.83l-.02-.03v-.01c-5.51-9.36-11.69-19.85-16.5-34.43-4.8-14.58-8.23-33.27-8.23-59v-228.34h64.32c77.4 0 147.3-8.69 207.76-25.85 59.49-16.88 110.4-42.11 151.33-74.97 40.64-32.63 71.76-73.06 92.52-120.16 20.8-47.2 31.34-101.46 31.34-161.29s-10.54-114.1-31.34-161.29c-20.76-47.1-51.88-87.53-92.52-120.16-40.93-32.87-91.84-58.09-151.33-74.97-60.46-17.16-130.36-25.857-207.76-25.857H800.241c-7.406 0-13.251 1.529-17.248 4.407-4.002 2.881-6.139 7.108-6.139 12.468 0 13.432 5.579 22.902 12.621 34.862l.004.01c5.51 9.35 11.687 19.85 16.489 34.43 4.801 14.59 8.227 33.27 8.227 59v847.71c0 25.73-3.427 44.42-8.229 59-4.801 14.58-10.975 25.07-16.484 34.43l-.007.01-.015.02c-7.032 11.95-12.606 21.41-12.606 34.84 0 5.36 2.137 9.59 6.139 12.47 3.997 2.88 9.842 4.41 17.248 4.41Z" fill="#F36F3A" stroke="#F36F3A" stroke-width=".25"/>
  <path d="M1188.08 1715.52h-.12v197.61c0 22.3 2.97 38.49 7.14 51.14 4.16 12.64 9.52 21.74 14.29 29.83l.01.02h.01c5.98 10.17 10.69 18.16 10.69 29.38 0 3.09-.83 5.47-2.15 7.29-1.31 1.82-3.11 3.1-5.04 3.99-3.87 1.79-8.26 2.04-10.32 2.04H861.728c-6.036 0-10.767-1.23-13.986-3.5-3.214-2.27-4.931-5.59-4.931-9.82 0-11.22 4.706-19.21 10.691-29.38h.003c4.77-8.1 10.128-17.2 14.293-29.85 4.165-12.65 7.134-28.84 7.134-51.14v-729.19c0-22.29-2.969-38.49-7.134-51.14-4.165-12.65-9.525-21.75-14.296-29.85-5.985-10.16-10.691-18.16-10.691-29.38 0-4.23 1.717-7.55 4.931-9.82 3.219-2.27 7.95-3.49 13.986-3.49h382.762c133.03 0 236.7 29.09 308.14 86.46 34.8 27.95 61.46 62.57 79.24 102.91 17.82 40.44 26.85 86.96 26.85 138.26s-9.03 97.81-26.85 138.25c-17.78 40.34-44.44 74.97-79.24 102.92-71.44 57.36-175.11 86.46-308.14 86.46h-56.41Zm-326.352 322.59h340.862c6.91 0 11.61-1.88 14.59-4.65 2.98-2.77 4.21-6.43 4.21-9.96 0-11.58-4.8-19.74-10.87-30.03v-.01c-4.74-8.04-10.06-17.06-14.19-29.6-4.13-12.54-7.08-28.6-7.08-50.73v-196.32h55.24c133.31 0 237.26-29.18 308.95-86.75 34.97-28.08 61.75-62.87 79.61-103.39 17.89-40.61 26.97-87.31 26.97-138.78 0-51.48-9.08-98.17-26.97-138.78-17.86-40.53-44.64-75.32-79.61-103.4-71.69-57.57-175.64-86.74-308.95-86.74H861.728c-6.396 0-11.446 1.32-14.901 3.81-3.46 2.49-5.307 6.15-5.307 10.79 0 11.58 4.803 19.73 10.857 30.01l.014.03c4.737 8.04 10.048 17.06 14.175 29.6 4.128 12.54 7.074 28.6 7.074 50.73v729.19c0 22.13-2.946 38.19-7.074 50.73-4.127 12.54-9.438 21.56-14.175 29.6l-.014.03c-6.054 10.28-10.857 18.44-10.857 30.01 0 4.64 1.847 8.3 5.307 10.79 3.455 2.5 8.505 3.82 14.901 3.82Z" fill="#F36F3A" stroke="#F36F3A" stroke-width=".25"/>
</svg>